<?xml version="1.0" standalone="no"?>
<!DOCTYPE svg PUBLIC "-//W3C//DTD SVG 20010904//EN"
 "http://www.w3.org/TR/2001/REC-SVG-20010904/DTD/svg10.dtd">
<svg version="1.0" xmlns="http://www.w3.org/2000/svg"
 width="700.000000pt" height="700.000000pt" viewBox="0 0 700.000000 700.000000"
 preserveAspectRatio="xMidYMid meet">
<metadata>
Created by potrace 1.11, written by Peter Selinger 2001-2013
</metadata>
<g transform="translate(0.000000,700.000000) scale(0.100000,-0.100000)"
fill="#000000" stroke="none">
<path d="M1858 5405 c-209 -290 -426 -708 -532 -1030 -59 -178 -107 -387 -122
-535 -3 -36 -8 -67 -10 -70 -1 -4 -6 -62 -11 -130 -13 -221 -8 -586 12 -740 2
-19 7 -55 10 -80 3 -25 10 -70 15 -100 5 -30 12 -71 15 -90 36 -220 153 -566
267 -795 121 -241 413 -685 451 -685 26 0 239 155 273 199 13 16 10 20 -116
211 -38 58 -76 116 -83 130 -8 14 -24 43 -37 65 -128 222 -268 592 -316 840
-2 11 -6 31 -9 45 -58 272 -80 601 -61 915 4 61 9 117 11 125 2 8 6 42 10 75
6 52 33 215 50 296 69 337 240 752 429 1043 116 178 138 229 106 246 -10 5
-73 48 -139 95 -67 47 -123 85 -126 85 -2 0 -41 -52 -87 -115z"/>
<path d="M4844 5477 c-78 -40 -213 -151 -214 -176 0 -8 14 -36 30 -63 17 -26
30 -51 30 -54 0 -3 17 -31 39 -62 140 -207 262 -454 348 -707 33 -98 95 -330
109 -410 4 -22 8 -49 11 -60 33 -169 47 -359 48 -625 0 -271 -15 -455 -50
-630 -3 -14 -8 -38 -11 -55 -3 -16 -16 -75 -30 -130 -13 -55 -26 -109 -29
-120 -9 -38 -86 -260 -104 -300 -10 -22 -30 -67 -44 -100 -30 -72 -105 -217
-155 -300 -35 -59 -197 -310 -213 -331 -6 -7 44 -47 141 -113 l151 -102 19 23
c189 221 390 571 531 926 77 194 162 477 184 612 3 19 8 42 10 50 2 8 6 42 9
75 4 33 9 85 12 115 7 78 7 628 0 730 -17 213 -24 269 -62 438 -61 274 -218
652 -399 962 -21 36 -44 76 -51 90 -25 48 -149 227 -192 278 -23 27 -51 52
-61 55 -9 2 -35 -5 -57 -16z"/>
<path d="M2607 5484 c-1 -1 -30 -4 -64 -7 -112 -10 -123 -32 -98 -196 2 -20 7
-54 10 -76 4 -22 8 -52 11 -66 l5 -26 113 0 c256 0 323 -37 448 -248 57 -96
215 -438 219 -475 3 -26 -8 -84 -21 -110 -10 -19 -189 -412 -253 -555 -27 -60
-92 -211 -144 -335 -51 -124 -98 -234 -103 -245 -47 -99 -206 -552 -284 -805
-39 -128 -96 -330 -96 -341 0 -18 70 -27 242 -28 l187 -2 11 43 c75 278 257
868 278 903 4 6 7 12 7 15 6 43 217 579 290 734 57 123 95 179 110 166 19 -16
180 -506 364 -1105 15 -49 70 -240 122 -423 l94 -333 196 1 c143 1 202 5 215
14 16 13 20 46 10 91 -54 247 -379 1253 -576 1785 -17 47 -33 90 -34 95 -2 6
-6 17 -9 25 -3 8 -34 89 -68 180 -34 91 -70 183 -79 205 -10 22 -32 76 -50
120 -112 281 -231 528 -322 665 -139 210 -299 303 -561 326 -69 6 -167 11
-170 8z"/>
</g>
</svg>
